<svg width="1000" height="1000" viewBox="0 0 1000 1000" fill="none" xmlns="http://www.w3.org/2000/svg">
<g clip-path="url(#clip0_2_2)">
<path d="M414.656 7.08414C531.975 -12.3076 655.598 9.5081 757.404 71.5615C853.393 129.737 929.505 220.393 968.289 325.593C997.861 402.675 1005.62 487.513 995.437 568.959C801.52 569.928 608.088 568.959 414.656 569.443C414.656 381.829 414.171 194.699 414.656 7.08414Z" fill="white" stroke="#E10D05" stroke-width="0.454493"/>
<path d="M15.1867 377.466C39.9111 277.114 98.0862 185.973 176.623 118.586C178.077 268.872 176.623 419.158 177.107 569.443C119.417 568.959 61.7268 570.413 4.03646 568.959C-2.75063 504.966 -1.29625 440.004 15.1867 377.466Z" fill="white" stroke="#E10D05" stroke-width="0.454493"/>
<path d="M29.7305 666.402C78.6945 666.402 128.143 666.402 177.107 666.402C177.107 737.666 177.592 808.931 177.107 880.68C109.721 824.444 56.8788 749.786 29.7305 666.402Z" fill="white" stroke="#E10D05" stroke-width="0.454493"/>
<path d="M414.656 666.402C600.331 666.402 786.007 665.917 971.197 666.887C927.566 789.539 834.486 893.769 717.166 950.005C624.086 995.091 516.462 1010.6 414.656 992.182C414.171 883.589 414.656 774.995 414.656 666.402Z" fill="white" stroke="#E10D05" stroke-width="0.454493"/>
</g>
<defs>
<clipPath id="clip0_2_2">
<rect width="999.913" height="1000" fill="white"/>
</clipPath>
</defs>
</svg>
